<svg xmlns="http://www.w3.org/2000/svg" viewBox="0 0 160 160">
<g>
	<path d="M136,80V70h-0.8l-32.8,32.4c-1.4,7.3-4.7,13.5-9.2,17.6H136v-10h10V80H136z"/>
	<path d="M68,120c-5.9-5.4-9.8-14.6-9.8-25s3.9-19.6,9.8-25H25v10H15v30h10v10H68z"/>
	<polygon points="140.2,65 150,65 150,125 10,125 10,65 77.3,65 87.4,55 0,55 0,135 160,135 160,55 150.4,55 	"/>
</g>
<g class="icon__tan">
	<polygon points="99,96.8 137.2,59.1 114.1,36 76,73.8 	"/>
	<polygon points="145.1,51.3 155.3,41.1 132.2,18 122,28.2 	"/>
	<polygon points="68.1,81.6 68,81.7 68,104.6 91.1,104.6 91.1,104.6 	"/>
</g>
</svg>
