<svg xmlns="http://www.w3.org/2000/svg" viewBox="0 0 16 16">
<g id="layer1" transform="translate(0,-892.36218)" inkscape:label="Layer 1" inkscape:groupmode="layer">
	<path id="path3006" sodipodi:cx="80" sodipodi:cy="120" sodipodi:rx="10" sodipodi:type="arc" sodipodi:ry="10" d="
		M5.6,905.2c0,0.7-0.5,1.2-1.2,1.2s-1.2-0.5-1.2-1.2c0-0.7,0.5-1.2,1.2-1.2S5.6,904.5,5.6,905.2z"/>
	<path id="path3006-1" inkscape:connector-curvature="0" sodipodi:nodetypes="scccccs" d="M4.4,894.4
		c-1.3,0-2.4,1.1-2.4,2.4v0.6l2.4,5.4l2.4-5.4v-0.6C6.8,895.4,5.7,894.4,4.4,894.4z"/>
	<path id="path3006-0" sodipodi:cx="80" sodipodi:cy="120" sodipodi:rx="10" sodipodi:type="arc" sodipodi:ry="10" d="
		M12.8,905.2c0,0.7-0.5,1.2-1.2,1.2c-0.7,0-1.2-0.5-1.2-1.2c0-0.7,0.5-1.2,1.2-1.2C12.3,904,12.8,904.5,12.8,905.2z"/>
	<path id="path3006-1-9" inkscape:connector-curvature="0" sodipodi:nodetypes="scccccs" d="M11.6,894.4
		c-1.3,0-2.4,1.1-2.4,2.4v0.6l2.4,5.4l2.4-5.4v-0.6C14,895.4,12.9,894.4,11.6,894.4z"/>
</g>
</svg>
