<svg xmlns="http://www.w3.org/2000/svg" viewBox="0 0 16 16">
<path d="M6.9,1C4.4,2.1,5,5.3,5,5.3c-1.9,0-3.3,2.9-4.2,5.1l8.4,2.5c0.6,0.1,0.3,1.2-0.3,1l-8.5-2.5
	C0.2,12.2,0,12.8,0,12.8L10.9,16l5.1-3.2V3.1L6.9,1z M3.3,9.6c-0.4,0-0.7-0.3-0.7-0.7s0.3-0.7,0.7-0.7S4,8.5,4,8.9S3.7,9.6,3.3,9.6z
	 M4.3,6.9c0-0.4,0.3-0.7,0.7-0.7s0.7,0.3,0.7,0.7c0,0.4-0.3,0.7-0.7,0.7S4.3,7.3,4.3,6.9z M5.5,10.2c-0.4,0-0.7-0.3-0.7-0.7
	c0-0.4,0.3-0.7,0.7-0.7s0.7,0.3,0.7,0.7C6.2,9.9,5.9,10.2,5.5,10.2z M6.5,7.6c0-0.4,0.3-0.7,0.7-0.7c0.4,0,0.7,0.3,0.7,0.7
	c0,0.4-0.3,0.7-0.7,0.7C6.8,8.3,6.5,8,6.5,7.6z M7.9,11c-0.4,0-0.7-0.3-0.7-0.7c0-0.4,0.3-0.7,0.7-0.7s0.7,0.3,0.7,0.7
	C8.5,10.7,8.2,11,7.9,11z M9.3,8.9c-0.4,0-0.7-0.3-0.7-0.7s0.3-0.7,0.7-0.7c0.4,0,0.7,0.3,0.7,0.7S9.7,8.9,9.3,8.9z M11,6.4L6,4.8
	V3.1l5,1.6V6.4z"/>
</svg>
