<svg xmlns="http://www.w3.org/2000/svg" viewBox="0 0 160 160">
<path d="M147.2,90.1c0,0-14.9-8.6-20-3.7c0,0,5.5-9.9-0.9-20.9C116.6,48.5,97,45.3,97,45.3s-0.3-0.1-0.9-0.1
	c-7.5-15.9-23.6-26.9-42.3-26.9C27.9,18.3,7,39.2,7,65c0,11.8,4.4,22.5,11.5,30.7c-3.1,1.8-6.2,4.2-9.2,7.3
	c-14.7,16.1-7.1,28.6-7.1,28.6s4,10.4,19,10.4s109.9,0,109.9,0s21.4-0.4,27.8-19.8C165.2,102.8,147.2,90.1,147.2,90.1z M17,65
	c0-20.3,16.5-36.8,36.8-36.8c13,0,24.4,6.8,31,17c-8.3,1.3-19.2,5.5-27,18c-11.3,18.2-3,31.6-3,31.6S43,88.1,28.5,91.6
	C21.4,84.9,17,75.5,17,65z"/>
</svg>
