<svg xmlns="http://www.w3.org/2000/svg" viewBox="0 0 16 16">
	<g>
		<path d="M6.3,1.4c0,0-1.3,1.1-1.4,2.1S4.8,5.4,5.3,6.9c0.4,1.4,2.2,3.3,4.3,4.9l0.4-0.2l0.1-0.5L8.6,9.9H10v-1H7.6
			C7,8.4,6.3,7.4,6.1,6.8C5.9,6,5.5,4.5,5.7,3.5c0.1-0.4,0.5-0.9,1.1-1.6C7.3,1.5,6.3,1.4,6.3,1.4z"/>
		<path d="M10.5,11.6h-1c0,0,0.1,2.3-1,2.9c-1.3,0.8-2.3,0.7-2.3,0.7s-1,0.1-2.3-0.7c-1.1-0.7-1.1-2.9-1.1-2.9H2
			c0,0-0.2,2,1.1,3.3C4.4,16.1,6.2,16,6.2,16s1.9,0.1,3.2-1.1C10.7,13.6,10.5,11.6,10.5,11.6z"/>
		<path  d="M6.4,2.7L5.4,1.8c0,0,0.5-1.4,2-1.8c1.1-0.1,1.1,1,1,1.2C7.9,2,7.6,2.3,6.4,2.7z"/>
		<g>
			<circle  cx="2.5" cy="10" r="2"/>
		</g>
		<path d="M13.5,1.4c0,0,1.3,1.1,1.4,2.1s0.1,1.9-0.4,3.5c-0.4,1.4-2.2,3.3-4.3,4.9l-0.4-0.2l-0.1-0.5l1.4-1.2H9.8v-1
			h2.4c0.7-0.5,1.3-1.5,1.5-2.1c0.2-0.7,0.7-2.2,0.4-3.3C14,3.1,13.6,2.6,13,1.9C12.5,1.5,13.5,1.4,13.5,1.4z"/>
		<path d="M13.5,2.7l0.9-0.9c0,0-0.5-1.4-2-1.8c-1.1-0.1-1.1,1-1,1.2C12,2,12.3,2.3,13.5,2.7z"/>
	</g>
</svg>
