<svg xmlns="http://www.w3.org/2000/svg" viewBox="0 0 16 16">
<path class="icon__green" d="M13.1,4.7L13.1,4.7L8.3,1.9l0,0C8.1,1.8,8,1.8,7.8,1.8c-0.5,0-0.9,0.4-0.9,0.9c0,0.4,0.3,0.7,0.6,0.9l1.7,1H7.5l-5-0.3l0,0
	c0,0-0.1,0-0.1,0c-0.5,0-0.9,0.4-0.9,0.9c0,0.5,0.4,0.9,0.9,0.9c0,0,0.1,0,0.1,0l4.3,0.3c0,0.2-0.1,0.4-0.1,0.6H2.1c0,0-0.1,0-0.1,0
	C1.4,6.9,1,7.4,1,7.9s0.4,0.9,0.9,0.9c0,0,0,0,0.1,0v0h4.7v0.6L2.2,9.7c0,0,0,0,0,0c-0.5,0-0.9,0.4-0.9,0.9s0.4,0.9,0.9,0.9
	c0,0,0.1,0,0.1,0l0,0l4.5-0.3c0,0.1,0,0.3,0.1,0.4l-3.9,0.8l0,0c-0.4,0.1-0.8,0.5-0.8,0.9c0,0.5,0.4,0.9,0.9,0.9c0.1,0,0.2,0,0.3,0
	l4-0.8h5.2v0h0c1.4,0,2.5-1.1,2.5-2.5V7C15,5.9,14.2,4.9,13.1,4.7z"/>
</svg>
