<svg xmlns="http://www.w3.org/2000/svg" viewBox="0 0 160 160">
<g style="opacity: .6">
	<path d="M119.1,27.4c-0.8,0-1.6,0-2.4,0c-8.4,0.3-16.6,3.1-23.2,8.2
		c6.4,12.7,7.8,28,1.4,41.7c-2,5.4-5.1,10.2-8.7,14.3c7.7,9.8,19.6,15.5,32.2,15.4c22.1-0.2,39.9-18,39.9-39.7l0-1.6
		C157.3,44.7,140.2,28,119.1,27.4L119.1,27.4z"/>
	<path d="M120.8,112.3 L120.8,112.3c-13.5,0.2-25.9,2.9-35.7,7.3c18.9,7.3,31.8,20,32.9,34.7l0,0v21.8h63v-33.4h0c-1.4-16.6-26.4-29.9-56.9-30.4
		C123,112.3,121.9,112.3,120.8,112.3L120.8,112.3z M65.4,137C65.4,137,65.4,137,65.4,137l2.6,0v0L65.4,137z M83.2,137L83.2,137l13,0
		v0H83.2z"/>
</g>
<g>
	<path d="M24.7,95.9c24.5,23,68.3,12.7,80.2-18.6c12.7-27.5-5.7-61.4-33.7-68.6c4.7,3.6,7.8,9.4,8.5,15.4c1.2,0.8,2.4,1.9,3.5,2.9
		h-3.3c0,0,0,0,0,0.1c-0.1,2.8-0.6,4.9-1.7,7.9H83c-0.7,2-1.6,4-2.8,6h14c5,10,6.2,21.9,1.3,32.2l-0.1,0.2l-0.1,0.2
		c-9,24.2-44.9,32.7-63.7,14.8l-0.1-0.1l-0.1,0C18.1,77.2,15.1,57,21.8,41h15c-1.1-2-2.1-4-2.8-6h4.7c-1.1-3-1.6-6-1.7-8h-4.5
		c1.2-1,2.5-2,3.9-2.8l0.1-0.2l0.1-0.1c0.2-0.1,0.4-0.3,0.6-0.4c0.7-5.7,3.6-10.9,8-14.5c-4.9,1.3-9.6,3.3-14,6.1
		C2.6,31.4-0.2,75.1,24.7,95.9z"/>
	<path d="M60.7,113.1c-1.3,0-2.7,0-3.7,0v0C20,113.7-9.2,132-10.9,154H-12v46h140v-45.7l0.1,0C126.5,131.8,96.9,113.8,60.7,113.1z
		 M106,137h-8v10H88v10H78v-10H68v-10h3l0,0h7v-10h10v10h10l0,0H106L106,137z"/>
	<path d="M58.5,53.1c-0.1,0-0.2,0-0.3,0c-13-0.1-23.8-10.3-25.5-23.2l-0.4,0l0.2-4v-4h0.4C35,9.1,46.2-0.6,59.3-0.2
		C73.4,0.3,84.7,12.4,84.4,27C84.1,41.4,72.5,53.1,58.5,53.1z M41.5,26.1v0.4C41.5,36,49,43.9,58.3,44c0.1,0,0.1,0,0.2,0
		c9.2,0,16.7-7.7,16.9-17.2c0.2-9.6-7.2-17.7-16.4-18c-9.2-0.3-17,7.3-17.4,16.9L41.5,26.1z"/>
</g>
</svg>
