<svg xmlns="http://www.w3.org/2000/svg" viewBox="0 0 160 160">
<g>
	<path d="M53.9,77.2c19.4,18.3,54.3,10.1,63.7-14.8c8.8-18.9-1-41.6-18.2-51.1c-3.6-6.5-10.3-11-18-11.3
		c-8.2-0.3-15.6,4.4-19.3,11.3c-1,0.5-2,1.1-3,1.7C36.3,25.9,34.1,60.6,53.9,77.2z M81.1,8.8C88,9,93.5,14.9,93.4,22.1
		C93.2,29.3,87.6,35,80.7,35c0,0-0.1,0-0.1,0C73.7,35,68,29.2,68,22v-0.3l0-0.3C68.3,14.2,74.2,8.6,81.1,8.8z M51.6,34h10.9
		c3.7,6,10.4,10,18,10c0.1,0,0.1,0,0.2,0c7.7,0,14.4-4,18.2-10h10.2c4,8,4.9,17.2,1.1,25.4l-0.1,0l-0.1,0.1
		c-7.2,19.2-35.7,25.9-50.6,11.8l-0.1-0.1l-0.1,0.2C48.7,62.5,46.3,45,51.6,34z"/>
	<path d="M82.2,90.8c-1,0-1.2,0-3.2,0v0C51,91.3,26.9,106,25.6,123H25v37h111v-36.4l0,0C134.7,105.7,111,91.4,82.2,90.8z M118.5,110
		H112v8h-8v8h-8v-8h-8v-8h2.4l0,0H96v-8h8v8h7.7l0,0H118.5L118.5,110z"/>
</g>
</svg>
