<svg xmlns="http://www.w3.org/2000/svg" viewBox="0 0 160 160">
<path d="M80,150c-38.6,0-70-31.4-70-70c0-38.6,31.4-70,70-70c38.6,0,70,31.4,70,70C150,118.6,118.6,150,80,150z M80,20
	c-33.1,0-60,26.9-60,60s26.9,60,60,60s60-26.9,60-60S113.1,20,80,20z"/>
<path d="M87,105.2H70.8 c0-2.3-0.1-7.9-0.1-8.4c0-5.2,0.9-9.6,2.6-12.9c1.7-3.4,5.2-7.2,10.4-11.4c3.7-3.7,7.6-10.2,7.7-15.2c-0.7-4.5-6.4-8.6-8.9-8.6
	C78,48.6,75,49.3,72,52c-4.1,3.7-4,7.9-5,12H49c-0.8-7.8,2.3-23,11-28c6.5-3.7,9.6-5,19.3-5c10.2,0,18.4,2.7,24.4,8
	c6,5.4,9.1,11.6,9.1,18.7c0,3.9-1.1,7.7-3.3,11.2c-2.2,3.5-7,8.3-14.2,14.3c-3.8,3.1-6.1,5.6-7,7.6C87.3,92.7,86.9,100.3,87,105.2z
	 M70.8,133v-17.8h17.8V133H70.8z"/>
</svg>
