<svg xmlns="http://www.w3.org/2000/svg" viewBox="0 0 160 160">
<g class="icon__green">
	<polygon points="0,33 0,113 27.2,113 27,112.8 23,109.1 27,105.4 29.6,103 10,103 10,43 150,43 150,103 140.3,103 
		140.3,113 160,113 160,33 	"/>
	<path d="M25,98h10.1l23.1-21.2C58.1,75.6,58,74.3,58,73c0-10.4,3.9-19.6,9.8-25H25v10H15v30h10V98z"/>
	<path d="M135,58V48H92.2c5.9,5.4,9.8,14.6,9.8,25c0,7.2-1.9,13.8-5,19h38v-4h10V58H135z"/>
</g>
<polygon class="icon__salmon" points="78.8,64.8 30.4,109.1 78.8,153.5 78.8,121.2 135.3,121.2 135.3,97 78.8,97 "/>
</svg>
