<svg xmlns="http://www.w3.org/2000/svg" viewBox="0 0 160 160">
   <g>
   	<path d="M0,0v100c0-11.1,8.9-20,20-20V20h60v50H30L20,80h69.5c3.9,0,7.5,1.1,10.5,3V0H0z"/>
   	<path d="M70,30H30v10h40V30z"/>
   	<path d="M70,50H30v10h40V50z"/>
   </g>
   <g class="icon__blue">
   	<path d="M110.2,89.8l10,20 h10c5.5,0,10,4.5,10,10v10c0,5.5-4.5,10-10,10h-40c-5.5,0-10-4.5-10-10l-20-10v20c0,11.1,8.9,20,20,20h60c11.1,0,20-8.9,20-20v-30
   		c0-11.1-8.9-20-20-20H110.2z"/>
   	<path d="M60.2,159.8l-10-20h-10c-5.5,0-10-4.5-10-10v-10 c0-5.5,4.5-10,10-10h40c5.5,0,10,4.5,10,10l20,10v-20c0-11.1-8.9-20-20-20h-60c-11.1,0-20,8.9-20,20v30c0,11.1,8.9,20,20,20H60.2z" />
   </g>
</svg>
