<svg xmlns="http://www.w3.org/2000/svg" viewBox="0 0 160 160">
	<g>
		<rect x="50" y="50" width="40" height="10"/>
		<polygon points="97.1,147.1 94.1,150 120,150 120,124.2 	"/>
		<polygon points="82.9,147.1 52.9,117.1 30,140 30,130 47.9,112.1 42.9,107.1 35.9,100 40,95.9 40,40 100,40 100,75.9 120,55.9 
			120,20 20,20 20,150 85.9,150 	"/>
		<polygon points="77.1,72.9 84.1,80 90,80 90,70 74.1,70 	"/>
		<polygon points="62.9,72.9 65.9,70 50,70 50,80 55.9,80 	"/>
	</g>
	<polygon points="90,140 50,100 70,80 90,100 140,50 160,70.2 "/>
</svg>
