<svg xmlns="http://www.w3.org/2000/svg" viewBox="0 0 16 16">
<g>
	<polygon points="6.7,0 9.4,0 9.7,2 6.4,2 	"/>
	<polygon points="13.1,1.2 14.9,3.2 12.2,6.1 9.9,3.7 	"/>
	<polygon points="16,6.7 16,9.4 14,9.7 14,6.4 	"/>
	<polygon points="15.3,12.3 13.6,14.4 11.3,12.9 13.3,10.3 	"/>
	<polygon points="6.7,16 9.4,16 9.7,13 6.4,13 	"/>
	<polygon points="3.3,1 1.5,3 4.4,6.1 6.7,3.7 	"/>
	<polygon points="0,6.7 0,9.4 3,9.7 3,6.4 	"/>
	<polygon points="1.1,12.7 2.9,14.6 5.3,12.7 3.1,10.3 	"/>
	<path d="M8,1.7c-3.4,0-6.2,2.8-6.2,6.2c0,3.4,2.8,6.2,6.2,6.2c3.4,0,6.2-2.8,6.2-6.2C14.2,4.5,11.5,1.7,8,1.7z
		 M8.1,11.1C6.4,11.1,5,9.7,5,8C5,6.3,6.4,5,8.1,5s3.1,1.4,3.1,3.1C11.1,9.7,9.8,11.1,8.1,11.1z"/>
</g>
</svg>
