<svg xmlns="http://www.w3.org/2000/svg" viewBox="0 0 160 160">
	<circle cx="90" cy="130" r="20"/>
	<circle cx="30" cy="50" r="20"/>
	<circle cx="130" cy="50" r="20"/>
	<path d="M80,30c8.5,0,16.5,2.1,23.5,5.9c1.6-3,3.7-5.7,6.2-8C101,22.9,90.8,20,80,20c-26.4,0-48.8,17.1-56.8,40.8 l9.7,2.4C39.8,43.9,58.3,30,80,30z"/>
	<g>
		<path d="M89,129.2c-2.9,0.5-6,0.8-9,0.8c-27.6,0-50-22.4-50-50c-3.5,0-6.8-0.6-10-1.7c0,0.6,0,1.1,0,1.7
			c0,33.1,26.9,60,60,60c4,0,8-0.4,11.8-1.2L89,129.2z"/>
		<path d="M131.6,49.3l-7.9,6.4c4,7.2,6.3,15.5,6.3,24.3c0,13.5-5.4,25.8-14.1,34.8c1.8,3.1,3.1,6.6,3.7,10.3
			C132.1,114.1,140,98,140,80C140,68.8,136.9,58.3,131.6,49.3z"/>
	</g>
</svg>
